<mxfile host="app.diagrams.net" modified="2023-09-04T11:38:25.589Z" agent="Mozilla/5.0 (Windows NT 10.0; Win64; x64; rv:109.0) Gecko/20100101 Firefox/117.0" version="21.7.2" etag="7H438XxX6TSa5FRwMG_a" type="github">
  <diagram name="第 1 页" id="FXVZrqm29_MZOOoYMOd6">
    <mxGraphModel>
      <root>
        <mxCell id="0" />
        <mxCell id="1" parent="0" />
      </root>
    </mxGraphModel>
  </diagram>
</mxfile>
